<svg width="24" height="24" viewBox="0 0 24 24" fill="none" xmlns="http://www.w3.org/2000/svg">
<path fill-rule="evenodd" clip-rule="evenodd" d="M8.93934 2.93934C9.22064 2.65804 9.60218 2.5 10 2.5H14C14.3978 2.5 14.7794 2.65804 15.0607 2.93934C15.342 3.22064 15.5 3.60218 15.5 4V5.5H8.5V4C8.5 3.60218 8.65804 3.22064 8.93934 2.93934ZM7.5 5.5V4C7.5 3.33696 7.76339 2.70107 8.23223 2.23223C8.70107 1.76339 9.33696 1.5 10 1.5H14C14.663 1.5 15.2989 1.76339 15.7678 2.23223C16.2366 2.70107 16.5 3.33696 16.5 4V5.5H19H21C21.2761 5.5 21.5 5.72386 21.5 6C21.5 6.27614 21.2761 6.5 21 6.5H19.5V20C19.5 20.663 19.2366 21.2989 18.7678 21.7678C18.2989 22.2366 17.663 22.5 17 22.5H7C6.33696 22.5 5.70107 22.2366 5.23223 21.7678C4.76339 21.2989 4.5 20.663 4.5 20V6.5H3C2.72386 6.5 2.5 6.27614 2.5 6C2.5 5.72386 2.72386 5.5 3 5.5H5H7.5ZM5.5 6.5H8H16H18.5V20C18.5 20.3978 18.342 20.7794 18.0607 21.0607C17.7794 21.342 17.3978 21.5 17 21.5H7C6.60218 21.5 6.22064 21.342 5.93934 21.0607C5.65804 20.7794 5.5 20.3978 5.5 20V6.5ZM10 10.5C10.2761 10.5 10.5 10.7239 10.5 11V17C10.5 17.2761 10.2761 17.5 10 17.5C9.72386 17.5 9.5 17.2761 9.5 17V11C9.5 10.7239 9.72386 10.5 10 10.5ZM14.5 11C14.5 10.7239 14.2761 10.5 14 10.5C13.7239 10.5 13.5 10.7239 13.5 11V17C13.5 17.2761 13.7239 17.5 14 17.5C14.2761 17.5 14.5 17.2761 14.5 17V11Z" fill="black"/>
</svg>
